<svg width="1600" height="800" viewBox="0 0 1600 800" fill="none" xmlns="http://www.w3.org/2000/svg">
<g clip-path="url(#clip0_145:183)">
<rect width="1600" height="800" fill="white"/>
<path d="M1745.5 1011.44C1688.58 1046.06 1589.95 1010.71 1509.96 980.352C1429.84 950.483 1368.84 925.738 1305.35 883.523C1242.2 841.926 1176.91 783.478 1177.67 723.3C1178.9 663.249 1246.52 602.087 1298.76 535.228C1351.01 468.368 1387.87 395.813 1453.68 350.967C1519.49 306.12 1614.39 288.494 1698.77 315.83C1783.29 342.676 1857.77 414.614 1878.5 497.875C1899.23 581.136 1866.2 675.72 1842.21 774.826C1817.73 873.803 1802.78 977.43 1745.5 1011.44Z" fill="#F1C21B"/>
<path d="M-199.669 -100.81C-149.347 -130.409 -69.9088 -111.598 15.5561 -114.05C101.021 -116.502 192.513 -140.216 263.077 -109.804C334.072 -79.2965 383.708 5.24309 378.678 83.6431C373.553 162.474 313.236 235.502 258.744 302.582C204.777 369.325 156.97 430.646 98.0434 443.899C39.6418 456.815 -29.9753 422.093 -106.321 395.379C-183.098 368.57 -267.034 349.675 -298.882 299.31C-330.635 248.515 -310.3 166.25 -290.008 86.2342C-269.715 6.21873 -249.465 -71.5474 -199.669 -100.81Z" fill="#FA4D56"/>
<path d="M524.36 358.12L500.6 442H491.24L470.12 370.48L448.52 442L439.4 442.12L416.12 358.12H425.12L444.32 431.68L465.8 358.12H475.16L496.04 431.68L515.36 358.12H524.36ZM574.289 442.96C568.129 442.96 562.569 441.6 557.609 438.88C552.729 436.08 548.849 432.16 545.969 427.12C543.169 422 541.769 416.04 541.769 409.24C541.769 402.44 543.209 396.52 546.089 391.48C548.969 386.36 552.889 382.44 557.849 379.72C562.809 376.92 568.369 375.52 574.529 375.52C580.689 375.52 586.249 376.92 591.209 379.72C596.249 382.44 600.169 386.36 602.969 391.48C605.849 396.52 607.289 402.44 607.289 409.24C607.289 415.96 605.849 421.88 602.969 427C600.089 432.12 596.129 436.08 591.089 438.88C586.049 441.6 580.449 442.96 574.289 442.96ZM574.289 435.64C578.609 435.64 582.609 434.68 586.289 432.76C589.969 430.76 592.929 427.8 595.169 423.88C597.489 419.88 598.649 415 598.649 409.24C598.649 403.48 597.529 398.64 595.289 394.72C593.049 390.72 590.089 387.76 586.409 385.84C582.729 383.84 578.729 382.84 574.409 382.84C570.089 382.84 566.089 383.84 562.409 385.84C558.729 387.76 555.769 390.72 553.529 394.72C551.369 398.64 550.289 403.48 550.289 409.24C550.289 415 551.369 419.88 553.529 423.88C555.769 427.8 558.689 430.76 562.289 432.76C565.969 434.68 569.969 435.64 574.289 435.64ZM639.402 388.12C641.242 384.04 644.042 380.88 647.802 378.64C651.642 376.4 656.322 375.28 661.842 375.28V384.04H659.562C653.482 384.04 648.602 385.68 644.922 388.96C641.242 392.24 639.402 397.72 639.402 405.4V442H631.002V376.48H639.402V388.12ZM679.038 409.12C679.038 402.4 680.358 396.52 682.998 391.48C685.718 386.36 689.438 382.44 694.158 379.72C698.958 376.92 704.358 375.52 710.358 375.52C716.598 375.52 721.958 376.96 726.438 379.84C730.998 382.72 734.278 386.4 736.278 390.88V376.48H744.678V442H736.278V427.48C734.198 431.96 730.878 435.68 726.318 438.64C721.838 441.52 716.478 442.96 710.238 442.96C704.318 442.96 698.958 441.56 694.158 438.76C689.438 435.96 685.718 432 682.998 426.88C680.358 421.76 679.038 415.84 679.038 409.12ZM736.278 409.24C736.278 403.96 735.198 399.32 733.038 395.32C730.878 391.32 727.918 388.24 724.158 386.08C720.478 383.92 716.398 382.84 711.918 382.84C707.278 382.84 703.118 383.88 699.438 385.96C695.758 388.04 692.838 391.08 690.678 395.08C688.598 399 687.558 403.68 687.558 409.12C687.558 414.48 688.598 419.2 690.678 423.28C692.838 427.28 695.758 430.36 699.438 432.52C703.118 434.6 707.278 435.64 711.918 435.64C716.398 435.64 720.478 434.56 724.158 432.4C727.918 430.24 730.878 427.16 733.038 423.16C735.198 419.16 736.278 414.52 736.278 409.24ZM807.655 442L780.655 412.6V442H772.255V353.2H780.655V405.76L807.055 376.48H818.815L787.735 409.12L819.055 442H807.655ZM834.471 409.12C834.471 402.4 835.791 396.52 838.431 391.48C841.151 386.36 844.871 382.44 849.591 379.72C854.391 376.92 859.791 375.52 865.791 375.52C872.031 375.52 877.391 376.96 881.871 379.84C886.431 382.72 889.711 386.4 891.711 390.88V376.48H900.111V442H891.711V427.48C889.631 431.96 886.311 435.68 881.751 438.64C877.271 441.52 871.911 442.96 865.671 442.96C859.751 442.96 854.391 441.56 849.591 438.76C844.871 435.96 841.151 432 838.431 426.88C835.791 421.76 834.471 415.84 834.471 409.12ZM891.711 409.24C891.711 403.96 890.631 399.32 888.471 395.32C886.311 391.32 883.351 388.24 879.591 386.08C875.911 383.92 871.831 382.84 867.351 382.84C862.711 382.84 858.551 383.88 854.871 385.96C851.191 388.04 848.271 391.08 846.111 395.08C844.031 399 842.991 403.68 842.991 409.12C842.991 414.48 844.031 419.2 846.111 423.28C848.271 427.28 851.191 430.36 854.871 432.52C858.551 434.6 862.711 435.64 867.351 435.64C871.831 435.64 875.911 434.56 879.591 432.4C883.351 430.24 886.311 427.16 888.471 423.16C890.631 419.16 891.711 414.52 891.711 409.24ZM936.087 388.12C937.927 384.04 940.727 380.88 944.487 378.64C948.327 376.4 953.007 375.28 958.527 375.28V384.04H956.247C950.167 384.04 945.287 385.68 941.607 388.96C937.927 392.24 936.087 397.72 936.087 405.4V442H927.687V376.48H936.087V388.12ZM1010.28 375.28C1018.12 375.28 1024.52 377.72 1029.48 382.6C1034.44 387.4 1036.92 394.4 1036.92 403.6V442H1028.64V404.56C1028.64 397.44 1026.84 392 1023.24 388.24C1019.72 384.48 1014.88 382.6 1008.72 382.6C1002.4 382.6 997.364 384.6 993.604 388.6C989.844 392.6 987.964 398.48 987.964 406.24V442H979.564V376.48H987.964V387.64C990.044 383.64 993.044 380.6 996.964 378.52C1000.88 376.36 1005.32 375.28 1010.28 375.28Z" fill="black"/>
<circle cx="1135.73" cy="391.642" r="47.8589" fill="white" stroke="black" stroke-width="5"/>
<circle cx="1105.23" cy="321.422" r="7.0928" fill="black"/>
<circle cx="1064.09" cy="358.305" r="7.0928" fill="black"/>
</g>
<defs>
<clipPath id="clip0_145:183">
<rect width="1600" height="800" fill="white"/>
</clipPath>
</defs>
</svg>
